<svg width="34" height="34" viewBox="0 0 34 34" fill="none" xmlns="http://www.w3.org/2000/svg">
<path d="M0 16.8C0 26.0784 7.52162 33.6 16.8 33.6C26.0784 33.6 33.6 26.0784 33.6 16.8C33.6 7.52162 26.0784 0 16.8 0C7.52162 0 0 7.52162 0 16.8Z" fill="#AE8E50"/>
<path d="M16.8 9.65996C19.11 9.65996 19.425 9.65996 20.37 9.65996C21.21 9.65996 21.63 9.86996 21.945 9.97496C22.365 10.185 22.68 10.29 22.995 10.605C23.31 10.92 23.52 11.235 23.625 11.655C23.73 11.97 23.835 12.39 23.94 13.23C23.94 14.175 23.94 14.385 23.94 16.8C23.94 19.215 23.94 19.425 23.94 20.37C23.94 21.21 23.73 21.63 23.625 21.945C23.415 22.365 23.31 22.68 22.995 22.995C22.68 23.31 22.365 23.52 21.945 23.625C21.63 23.73 21.21 23.835 20.37 23.94C19.425 23.94 19.215 23.94 16.8 23.94C14.385 23.94 14.175 23.94 13.23 23.94C12.39 23.94 11.97 23.73 11.655 23.625C11.235 23.415 10.92 23.31 10.605 22.995C10.29 22.68 10.08 22.365 9.97496 21.945C9.86996 21.63 9.76496 21.21 9.65996 20.37C9.65996 19.425 9.65996 19.215 9.65996 16.8C9.65996 14.385 9.65996 14.175 9.65996 13.23C9.65996 12.39 9.86996 11.97 9.97496 11.655C10.185 11.235 10.29 10.92 10.605 10.605C10.92 10.29 11.235 10.08 11.655 9.97496C11.97 9.86996 12.39 9.76496 13.23 9.65996C14.175 9.65996 14.49 9.65996 16.8 9.65996ZM16.8 8.08496C14.385 8.08496 14.175 8.08496 13.23 8.08496C12.285 8.08496 11.655 8.29496 11.13 8.50496C10.605 8.71496 10.08 9.02996 9.55496 9.55496C9.02996 10.08 8.81996 10.5 8.50496 11.13C8.29496 11.655 8.18996 12.285 8.08496 13.23C8.08496 14.175 8.08496 14.49 8.08496 16.8C8.08496 19.215 8.08496 19.425 8.08496 20.37C8.08496 21.315 8.29496 21.945 8.50496 22.47C8.71496 22.995 9.02996 23.52 9.55496 24.045C10.08 24.57 10.5 24.78 11.13 25.095C11.655 25.305 12.285 25.41 13.23 25.515C14.175 25.515 14.49 25.515 16.8 25.515C19.11 25.515 19.425 25.515 20.37 25.515C21.315 25.515 21.945 25.305 22.47 25.095C22.995 24.885 23.52 24.57 24.045 24.045C24.57 23.52 24.78 23.1 25.095 22.47C25.305 21.945 25.41 21.315 25.515 20.37C25.515 19.425 25.515 19.11 25.515 16.8C25.515 14.49 25.515 14.175 25.515 13.23C25.515 12.285 25.305 11.655 25.095 11.13C24.885 10.605 24.57 10.08 24.045 9.55496C23.52 9.02996 23.1 8.81996 22.47 8.50496C21.945 8.29496 21.315 8.18996 20.37 8.08496C19.425 8.08496 19.215 8.08496 16.8 8.08496Z" fill="white"/>
<path d="M16.8 12.285C14.28 12.285 12.285 14.28 12.285 16.8C12.285 19.32 14.28 21.315 16.8 21.315C19.32 21.315 21.315 19.32 21.315 16.8C21.315 14.28 19.32 12.285 16.8 12.285ZM16.8 19.74C15.225 19.74 13.86 18.48 13.86 16.8C13.86 15.225 15.12 13.86 16.8 13.86C18.375 13.86 19.74 15.12 19.74 16.8C19.74 18.375 18.375 19.74 16.8 19.74Z" fill="white"/>
<path d="M21.42 13.23C21.9999 13.23 22.47 12.7599 22.47 12.18C22.47 11.6001 21.9999 11.13 21.42 11.13C20.8401 11.13 20.37 11.6001 20.37 12.18C20.37 12.7599 20.8401 13.23 21.42 13.23Z" fill="white"/>
</svg>
